Coordinates
version=1
nRows=32
nColumns=12
inDegrees=yes

Units are S.I. units (second, meters, Newtons, ...)
Angles are in degrees

endheader
time	SC_y	SC_z	SC_x	AC_y	AC_z	AC_x	GH_y	GH_z	GH_yy	EL_x	PS_y
       0.0              -43.05          18.45          42.52          49.77         -4.856         -15.69         -76.71         -5.957         -33.64          52.33          112.2
  0.004855              -43.05          18.45          42.52          49.77         -4.856         -15.68         -76.72         -5.955         -33.64          52.32          112.2
   0.00971              -43.05          18.45          42.51          49.76         -4.855         -15.68         -76.74         -5.952         -33.64          52.32          112.2
   0.01457              -43.05          18.45          42.51          49.76         -4.854         -15.67         -76.75         -5.949         -33.64          52.31          112.2
   0.01942              -43.05          18.45          42.51          49.76         -4.853         -15.67         -76.77         -5.946         -33.65           52.3          112.1
   0.02428              -43.05          18.45          42.51          49.76         -4.853         -15.66         -76.78         -5.943         -33.65           52.3          112.1
   0.02913              -43.05          18.45           42.5          49.76         -4.852         -15.65          -76.8         -5.939         -33.65          52.29          112.1
   0.03399              -43.06          18.45           42.5          49.76         -4.851         -15.65         -76.82         -5.935         -33.65          52.28          112.1
   0.03884              -43.06          18.45           42.5          49.75          -4.85         -15.64         -76.84         -5.931         -33.65          52.27          112.1
    0.0437              -43.06          18.45          42.49          49.75         -4.849         -15.63         -76.86         -5.927         -33.65          52.26          112.0
   0.04855              -43.06          18.45          42.49          49.75         -4.848         -15.62         -76.88         -5.922         -33.65          52.25          112.0
   0.05341              -43.06          18.45          42.48          49.75         -4.847         -15.61         -76.91         -5.917         -33.65          52.24          112.0
   0.05826              -43.07          18.45          42.48          49.74         -4.845          -15.6         -76.94         -5.912         -33.66          52.22          112.0
   0.06312              -43.07          18.45          42.47          49.74         -4.844         -15.59         -76.96         -5.906         -33.66          52.21          111.9
   0.06797              -43.07          18.45          42.47          49.74         -4.842         -15.58          -77.0           -5.9         -33.66          52.19          111.9
   0.07283              -43.08          18.45          42.46          49.73         -4.841         -15.57         -77.03         -5.893         -33.66          52.18          111.9
   0.07768              -43.08          18.45          42.45          49.73         -4.839         -15.55         -77.07         -5.886         -33.67          52.16          111.8
   0.08254              -43.08          18.45          42.45          49.73         -4.837         -15.54         -77.11         -5.877         -33.67          52.14          111.8
   0.08739              -43.09          18.45          42.44          49.72         -4.835         -15.52         -77.15         -5.869         -33.67          52.12          111.8
   0.09225              -43.09          18.45          42.43          49.72         -4.833          -15.5          -77.2         -5.859         -33.67           52.1          111.7
    0.0971               -43.1          18.45          42.42          49.71          -4.83         -15.48         -77.25         -5.848         -33.68          52.07          111.7
     0.102               -43.1          18.45          42.41          49.71         -4.827         -15.46         -77.31         -5.837         -33.68          52.04          111.6
    0.1068              -43.11          18.44           42.4           49.7         -4.824         -15.43         -77.38         -5.824         -33.69          52.01          111.5
    0.1117              -43.12          18.44          42.39          49.69         -4.821         -15.41         -77.45         -5.809         -33.69          51.98          111.5
    0.1165              -43.13          18.44          42.37          49.68         -4.817         -15.37         -77.53         -5.793          -33.7          51.94          111.4
    0.1214              -43.13          18.44          42.35          49.67         -4.813         -15.34         -77.61         -5.776          -33.7           51.9          111.3
    0.1262              -43.14          18.44          42.34          49.66         -4.808          -15.3         -77.71         -5.756         -33.71          51.85          111.2
    0.1311              -43.15          18.44          42.32          49.65         -4.802         -15.26         -77.82         -5.733         -33.72           51.8          111.1
    0.1359              -43.17          18.44          42.29          49.64         -4.796         -15.21         -77.95         -5.708         -33.72          51.74          111.0
    0.1408              -43.18          18.44          42.27          49.62          -4.79         -15.16         -78.09         -5.679         -33.73          51.67          110.8
    0.1457               -43.2          18.44          42.24          49.61         -4.782         -15.09         -78.26         -5.646         -33.75          51.59          110.7
    0.1505              -43.22          18.44           42.2          49.59         -4.773         -15.02         -78.44         -5.609         -33.76           51.5          110.5
